<?xml version="1.0" encoding="iso-8859-1"?>
<!-- Generator: Adobe Illustrator 19.0.0, SVG Export Plug-In . SVG Version: 6.00 Build 0)  -->
<svg version="1.1" id="Capa_1" xmlns="http://www.w3.org/2000/svg" xmlns:xlink="http://www.w3.org/1999/xlink" x="0px" y="0px"
	 viewBox="0 0 511 511" style="enable-background:new 0 0 511 511;" xml:space="preserve">
<g>
	<path d="M398.999,465.234V303.501l0-0.001c0,0,0,0,0,0c0-6.177-2.399-11.802-6.31-16c3.911-4.199,6.31-9.823,6.31-16
		s-2.399-11.801-6.31-16c3.911-4.199,6.31-9.823,6.31-16s-2.399-11.801-6.31-16c3.91-4.198,6.308-9.82,6.31-15.995
		c0-0.001,0-0.001,0-0.002V45.766c9.29-3.138,16-11.93,16-22.266c0-12.958-10.542-23.5-23.5-23.5H119.501
		c-12.958,0-23.5,10.542-23.5,23.5c0,10.336,6.71,19.128,16,22.266V207.5c0,6.177,2.399,11.801,6.309,16
		c-3.91,4.199-6.309,9.823-6.309,16s2.399,11.801,6.309,16c-3.91,4.199-6.309,9.823-6.309,16s2.399,11.801,6.309,16
		c-3.91,4.199-6.309,9.823-6.309,16v161.734c-9.29,3.138-16,11.93-16,22.266c0,12.958,10.542,23.5,23.5,23.5h271.998
		c12.958,0,23.5-10.542,23.5-23.5C414.999,477.164,408.289,468.372,398.999,465.234z M127.001,464v-41h256.998v41H127.001z
		 M383.999,47v41H127.001V47H383.999z M287.506,280h-59.223c1.243-5.524,2.073-11.202,2.46-17h56.762c4.142,0,7.5-3.358,7.5-7.5
		s-3.358-7.5-7.5-7.5h-56.762c-0.387-5.798-1.217-11.476-2.46-17h59.223c4.142,0,7.5-3.358,7.5-7.5s-3.358-7.5-7.5-7.5h-63.739
		c-15.134-39.814-52.444-68.783-96.765-71.742V103h256.998v104.5c0,4.687-3.813,8.5-8.5,8.5h-7.998c-4.142,0-7.5,3.358-7.5,7.5
		s3.358,7.5,7.5,7.5h7.998c4.687,0,8.5,3.813,8.5,8.5s-3.813,8.5-8.5,8.5h-7.998c-4.142,0-7.5,3.358-7.5,7.5s3.358,7.5,7.5,7.5
		h7.998c4.687,0,8.5,3.813,8.5,8.5s-3.813,8.5-8.5,8.5h-7.998c-4.142,0-7.5,3.358-7.5,7.5s3.358,7.5,7.5,7.5h7.998
		c4.687,0,8.5,3.813,8.5,8.5c0,0,0,0,0,0.001l0,0.001V408H127.001v-41.258c44.322-2.959,81.632-31.928,96.765-71.742h63.739
		c4.142,0,7.5-3.358,7.5-7.5S291.648,280,287.506,280z M127.001,207.5v-48.21c35.922,2.774,66.393,25.304,80.54,56.71h-72.04H135.5
		h-0.001C130.813,216,127.001,212.187,127.001,207.5z M135.5,231L135.5,231h77.346c1.443,5.493,2.415,11.174,2.865,17h-64.212
		h-15.998h-0.002c-4.686,0-8.498-3.813-8.498-8.5S130.813,231,135.5,231L135.5,231z M127.001,271.5c0-4.687,3.812-8.5,8.498-8.5
		h0.002h15.998h64.212c-0.45,5.826-1.423,11.507-2.865,17h-77.345H135.5h-0.001C130.813,280,127.001,276.187,127.001,271.5z
		 M135.5,295L135.5,295h72.041c-14.146,31.407-44.618,53.936-80.54,56.71V303.5C127.001,298.813,130.813,295,135.5,295L135.5,295z
		 M119.501,15h271.998c4.687,0,8.5,3.813,8.5,8.5s-3.813,8.5-8.5,8.5H119.501c-4.687,0-8.5-3.813-8.5-8.5S114.814,15,119.501,15z
		 M391.499,496H119.501c-4.687,0-8.5-3.813-8.5-8.5s3.813-8.5,8.5-8.5h271.998c4.687,0,8.5,3.813,8.5,8.5S396.186,496,391.499,496z"
		/>
	<path d="M319.506,231h15.999c4.142,0,7.5-3.358,7.5-7.5s-3.358-7.5-7.5-7.5h-15.999c-4.142,0-7.5,3.358-7.5,7.5
		S315.364,231,319.506,231z"/>
	<path d="M319.506,263h15.999c4.142,0,7.5-3.358,7.5-7.5s-3.358-7.5-7.5-7.5h-15.999c-4.142,0-7.5,3.358-7.5,7.5
		S315.364,263,319.506,263z"/>
	<path d="M319.506,295h15.999c4.142,0,7.5-3.358,7.5-7.5s-3.358-7.5-7.5-7.5h-15.999c-4.142,0-7.5,3.358-7.5,7.5
		S315.364,295,319.506,295z"/>
</g>
<g>
</g>
<g>
</g>
<g>
</g>
<g>
</g>
<g>
</g>
<g>
</g>
<g>
</g>
<g>
</g>
<g>
</g>
<g>
</g>
<g>
</g>
<g>
</g>
<g>
</g>
<g>
</g>
<g>
</g>
</svg>
